<?xml version="1.0" standalone="no"?>
<!DOCTYPE svg PUBLIC "-//W3C//DTD SVG 20010904//EN"
 "http://www.w3.org/TR/2001/REC-SVG-20010904/DTD/svg10.dtd">
<svg version="1.0" xmlns="http://www.w3.org/2000/svg"
 width="700.000000pt" height="700.000000pt" viewBox="0 0 700.000000 700.000000"
 preserveAspectRatio="xMidYMid meet">
<metadata>
Created by potrace 1.14, written by Peter Selinger 2001-2017
</metadata>
<g transform="translate(0.000000,700.000000) scale(0.100000,-0.100000)"
fill="#000000" stroke="none">
<path d="M6085 6984 c-90 -20 -232 -88 -313 -149 -120 -90 -230 -246 -265
-375 -42 -149 -36 -343 15 -479 37 -102 40 -94 -74 -216 -57 -60 -335 -343
-618 -627 l-514 -517 -26 16 c-164 109 -314 169 -467 188 -85 10 -253 6 -323
-9 -124 -26 -259 -83 -379 -159 l-53 -34 -485 485 c-339 340 -483 490 -479
501 3 9 15 43 26 76 19 52 21 77 18 190 -3 129 -4 131 -42 202 -112 211 -299
303 -546 270 -86 -12 -191 -68 -263 -141 -104 -106 -153 -235 -144 -381 21
-344 366 -563 688 -438 l77 30 486 -486 487 -487 -19 -25 c-80 -104 -163 -305
-181 -443 -22 -156 2 -403 47 -511 35 -80 67 -142 105 -202 l44 -69 -806 -807
-806 -806 -51 39 c-132 101 -267 149 -429 155 -349 12 -658 -210 -765 -550
-28 -87 -34 -259 -14 -355 30 -143 104 -276 210 -382 170 -168 334 -233 566
-224 221 9 371 77 531 241 187 192 247 494 156 775 -12 36 -26 70 -30 76 -10
13 45 79 195 233 219 226 1413 1421 1419 1421 4 0 37 -19 74 -41 96 -59 264
-129 343 -143 55 -9 80 -19 81 -30 0 -6 2 -295 4 -643 l4 -632 -81 -26 c-147
-48 -251 -112 -350 -217 -208 -220 -264 -532 -145 -808 100 -230 280 -382 537
-451 59 -16 272 -16 330 0 288 80 502 293 569 566 27 110 23 301 -8 395 -82
248 -263 427 -516 511 -38 13 -75 26 -80 30 -7 5 -10 141 -8 411 1 222 2 509
2 639 l1 237 37 7 c101 19 285 93 407 163 l59 34 483 -483 484 -484 -31 -80
c-50 -129 -44 -271 16 -403 61 -131 201 -242 345 -273 30 -6 94 -9 146 -7 123
7 215 48 307 140 117 116 155 208 153 374 -1 109 -2 113 -43 195 -66 133 -160
219 -295 271 -70 26 -218 28 -303 4 -33 -10 -64 -21 -70 -25 -36 -28 -42 -23
-530 465 -267 267 -485 488 -485 492 0 4 18 34 40 67 131 195 189 472 150 720
-17 111 -69 251 -135 361 -30 51 -55 96 -55 100 0 4 274 281 609 616 l610 609
74 -51 c146 -99 277 -140 447 -140 221 0 392 75 548 238 204 214 263 517 154
792 -89 226 -290 405 -521 465 -93 24 -250 28 -336 9z m318 -273 c109 -37 213
-124 273 -231 58 -100 78 -250 50 -360 -26 -100 -65 -168 -137 -240 -102 -102
-232 -153 -369 -146 -93 5 -126 14 -209 54 -208 101 -323 346 -266 567 47 182
191 325 375 374 62 16 208 7 283 -18z m-4676 -616 c143 -43 217 -218 149 -352
-29 -59 -57 -86 -116 -112 -123 -56 -273 -3 -331 116 -63 129 8 298 146 347
53 19 91 19 152 1z m2187 -1550 c315 -100 538 -400 536 -720 -1 -114 -5 -145
-31 -225 -67 -203 -189 -352 -369 -452 -155 -85 -397 -110 -570 -59 -262 79
-455 279 -526 548 -19 73 -22 107 -20 203 2 64 11 142 20 175 32 117 110 248
206 346 65 66 183 139 284 176 136 49 332 52 470 8z m1918 -2537 c92 -39 147
-129 143 -231 -4 -78 -24 -128 -71 -174 -138 -133 -377 -65 -419 120 -19 85 5
176 61 232 81 81 179 99 286 53z m-4872 -526 c123 -52 237 -174 282 -300 27
-76 29 -244 4 -318 -21 -64 -63 -131 -122 -194 -220 -236 -610 -195 -788 82
-54 85 -67 135 -67 267 1 130 6 155 51 238 51 95 134 173 232 218 79 36 128
45 238 41 80 -3 107 -8 170 -34z m2822 -222 c182 -35 349 -191 398 -370 27
-100 15 -236 -30 -335 -18 -39 -77 -124 -104 -150 -58 -54 -168 -118 -228
-131 -30 -6 -215 -5 -253 2 -104 18 -264 144 -318 249 -105 208 -71 434 90
594 123 122 281 172 445 141z"/>
</g>
</svg>
